<svg width="16" height="14" viewBox="0 0 16 14" fill="none" xmlns="http://www.w3.org/2000/svg">
<path d="M5.03344 13.5001C11.0697 13.5001 14.3722 8.49789 14.3722 4.16133C14.3722 4.02071 14.3691 3.87696 14.3628 3.73633C15.0052 3.27173 15.5597 2.69626 16 2.03696C15.4017 2.30316 14.7664 2.47701 14.1159 2.55258C14.8009 2.14203 15.3137 1.49707 15.5594 0.737269C14.915 1.11913 14.2104 1.3885 13.4756 1.53383C12.9806 1.0078 12.326 0.659502 11.6131 0.542792C10.9003 0.426082 10.1688 0.547458 9.53183 0.888156C8.89486 1.22885 8.38787 1.7699 8.08923 2.42763C7.7906 3.08537 7.71695 3.82317 7.87969 4.52696C6.575 4.46149 5.29862 4.12256 4.13332 3.53216C2.96802 2.94175 1.9398 2.11305 1.11531 1.09977C0.696266 1.82225 0.568038 2.67719 0.756687 3.49082C0.945337 4.30445 1.43671 5.01572 2.13094 5.48008C1.60975 5.46354 1.09998 5.32321 0.64375 5.07071V5.11133C0.643283 5.86952 0.905399 6.60448 1.38554 7.19127C1.86568 7.77806 2.53422 8.18047 3.2775 8.33008C2.7947 8.46218 2.28799 8.48142 1.79656 8.38633C2.0063 9.03838 2.41438 9.60869 2.96385 10.0176C3.51331 10.4266 4.17675 10.6538 4.86156 10.6676C3.69895 11.5808 2.26278 12.0762 0.784375 12.0738C0.522191 12.0734 0.260266 12.0574 0 12.0257C1.5019 12.9893 3.24902 13.501 5.03344 13.5001Z" fill="#161722"/>
</svg>
